<?xml version="1.0" encoding="UTF-8" standalone="no"?>
<!-- Created with Inkscape (http://www.inkscape.org/) -->

<svg
   xmlns:dc="http://purl.org/dc/elements/1.1/"
   xmlns:cc="http://creativecommons.org/ns#"
   xmlns:rdf="http://www.w3.org/1999/02/22-rdf-syntax-ns#"
   xmlns:svg="http://www.w3.org/2000/svg"
   xmlns="http://www.w3.org/2000/svg"
   xmlns:xlink="http://www.w3.org/1999/xlink"
   xmlns:sodipodi="http://sodipodi.sourceforge.net/DTD/sodipodi-0.dtd"
   xmlns:inkscape="http://www.inkscape.org/namespaces/inkscape"
   width="212.40605mm"
   height="62.120277mm"
   viewBox="0 0 212.40605 62.120277"
   version="1.1"
   id="svg8"
   sodipodi:docname="logo.svg"
   inkscape:version="0.92.2 5c3e80d, 2017-08-06">
  <defs
     id="defs2">
    <linearGradient
       inkscape:collect="always"
       id="linearGradient15096">
      <stop
         style="stop-color:#000000;stop-opacity:1;"
         offset="0"
         id="stop15092" />
      <stop
         style="stop-color:#000000;stop-opacity:0;"
         offset="1"
         id="stop15094" />
    </linearGradient>
    <linearGradient
       inkscape:collect="always"
       id="linearGradient14478">
      <stop
         style="stop-color:#000000;stop-opacity:1;"
         offset="0"
         id="stop14474" />
      <stop
         style="stop-color:#000000;stop-opacity:0"
         offset="1"
         id="stop14476" />
    </linearGradient>
    <linearGradient
       inkscape:collect="always"
       xlink:href="#linearGradient14478"
       id="linearGradient14480"
       x1="104.51042"
       y1="149.4003"
       x2="104.51042"
       y2="180.01637"
       gradientUnits="userSpaceOnUse"
       gradientTransform="matrix(3.7795271,0,0,2.4546335,-14.966064,-223.38854)" />
    <linearGradient
       inkscape:collect="always"
       xlink:href="#linearGradient15096"
       id="linearGradient15098"
       x1="105.96101"
       y1="155.89304"
       x2="103.51113"
       y2="128.30078"
       gradientUnits="userSpaceOnUse"
       gradientTransform="matrix(3.7795276,0,0,3.7795276,-15.636846,-435.57961)" />
    <filter
       inkscape:label="Evanescent"
       inkscape:menu="Blurs"
       inkscape:menu-tooltip="Blur the contents of objects, preserving the outline and adding progressive transparency at edges"
       style="color-interpolation-filters:sRGB"
       id="filter15134">
      <feGaussianBlur
         result="result6"
         stdDeviation="3"
         in="SourceGraphic"
         id="feGaussianBlur15128" />
      <feColorMatrix
         values="1 0 0 0 0 0 1 0 0 0 0 0 1 0 0 0 0 0 1 0 "
         result="result7"
         in="SourceGraphic"
         id="feColorMatrix15130" />
      <feComposite
         operator="in"
         in="result6"
         in2="result7"
         id="feComposite15132" />
    </filter>
    <filter
       style="color-interpolation-filters:sRGB;"
       inkscape:label="Lightness-Contrast"
       id="filter994">
      <feColorMatrix
         values="4.743 0 0 0.429957 -1.8715 0 4.743 0 0.429957 -1.8715 0 0 4.743 0.429957 -1.8715 0 0 0 1 0"
         id="feColorMatrix992"
         result="fbSourceGraphic" />
      <feColorMatrix
         result="fbSourceGraphicAlpha"
         in="fbSourceGraphic"
         values="0 0 0 -1 0 0 0 0 -1 0 0 0 0 -1 0 0 0 0 1 0"
         id="feColorMatrix1104" />
      <feColorMatrix
         id="feColorMatrix1106"
         values="3.032 0 0 -1.15354 -1.016 0 3.032 0 -1.15354 -1.016 0 0 3.032 -1.15354 -1.016 0 0 0 1 0"
         in="fbSourceGraphic" />
    </filter>
  </defs>
  <sodipodi:namedview
     id="base"
     pagecolor="#ffffff"
     bordercolor="#666666"
     borderopacity="1.0"
     inkscape:pageopacity="0.0"
     inkscape:pageshadow="2"
     inkscape:zoom="0.75096155"
     inkscape:cx="103.17507"
     inkscape:cy="61.340103"
     inkscape:document-units="mm"
     inkscape:current-layer="layer2"
     showgrid="false"
     inkscape:window-width="2560"
     inkscape:window-height="1403"
     inkscape:window-x="0"
     inkscape:window-y="0"
     inkscape:window-maximized="1"
     fit-margin-top="0"
     fit-margin-left="0"
     fit-margin-right="0"
     fit-margin-bottom="0"
     showborder="false"
     objecttolerance="4" />
  <metadata
     id="metadata5">
    <rdf:RDF>
      <cc:Work
         rdf:about="">
        <dc:format>image/svg+xml</dc:format>
        <dc:type
           rdf:resource="http://purl.org/dc/dcmitype/StillImage" />
        <dc:title></dc:title>
      </cc:Work>
    </rdf:RDF>
  </metadata>
  <g
     inkscape:groupmode="layer"
     id="layer2"
     inkscape:label="Ebene 2"
     style="opacity:0.164">
    <g
       style="opacity:1;filter:url(#filter994)"
       id="g900"
       transform="matrix(2.0426102,0,0,2.1800279,174.10584,-657.55642)">
      <path
         style="fill:#ebebeb;stroke-width:0.26458335"
         d="m -85.676818,321.99408 c -0.831033,-3.93754 5.53801,-2.08156 7.975642,-3.25589 9.639903,-1.81195 18.03484,-7.06235 26.413451,-11.86473 4.553496,-2.59178 10.071347,-4.89935 15.286621,-2.8322 7.890916,2.15973 14.393522,7.45948 21.884282,10.50015 3.19498,-2.40667 7.6697154,-4.43507 11.6593449,-2.5855 6.4740849,1.95936 12.1941569,5.73711 18.4277591,8.29271 0.70681,1.12467 6.034535,0.59436 2.467423,1.37343 -18.22908292,0.42583 -36.483819,-0.22822 -54.698989,0.6085 -16.246179,0.12789 -32.49861,0.21678 -48.741568,-0.16348 l -0.673966,-0.0731 z"
         id="path914"
         inkscape:connector-curvature="0" />
      <path
         style="fill:#e6e6e6;stroke-width:0.26458335"
         d="m -85.676818,321.7295 c -0.479433,-3.37768 5.830735,-1.51067 7.938771,-2.7873 10.452421,-1.96056 19.360683,-8.08807 28.563771,-13.01621 4.032767,-2.18791 9.158676,-3.48311 13.453546,-1.29667 10.120988,3.33887 18.472626,10.65757 28.8523403,13.40032 2.1941398,0.87932 7.14156518,1.8701 7.74186685,3.05844 -9.57482075,0.22327 -19.16375015,0.20332 -28.74055615,0.0453 -3.09039,0.20884 4.875139,-3.9702 0.55469,-1.70072 -2.762521,3.10099 -6.910101,2.52412 -10.635136,2.5761 -15.775922,-0.0217 -31.56122,0.23259 -47.331222,-0.19584 l -0.398068,-0.0833 z m 63.89241,-6.87586 c -0.475465,-0.18892 0.178019,1.12948 0,0 z m -0.97449,-1.27331 c -2.064607,-0.94931 0.815801,0.88638 0,0 z m -1.385978,-0.44637 c -1.987825,-0.23569 -0.675133,0.39861 0,0 z m -3.173346,-0.53643 c -2.520193,-0.19143 -1.626186,0.31126 0.155411,0.042 l -0.155411,-0.0423 z m -3.450223,-0.26863 c -2.532669,-0.19598 -2.026054,0.31585 0.241397,0.0405 l -0.241397,-0.0406 z m -2.860418,-0.16794 c -1.551968,-0.46831 -3.798742,-0.24033 -0.85428,0.0631 l 0.667269,0.0183 0.187011,-0.0813 z m -4.740453,-0.96188 c -1.92051,-0.84188 0.643088,0.95986 0,0 z m 0.132292,-2.64583 c 1.353558,-1.89238 -1.97448,1.92418 0,0 z m 1.488959,-1.52136 c 0.81385,-1.21363 -1.60993,1.53384 0,0 z m 41.8932171,13.85426 c -2.5604083,-2.36474 -4.94557616,-0.15348 -7.9280072,-1.87617 -3.2762233,-1.18324 -6.7792978,-1.93486 -9.8509959,-3.41884 -2.869845,-2.17163 3.9961433,-3.7855 5.8837274,-4.08265 2.9731558,-0.36567 3.4463214,1.72497 6.10580542,1.53223 5.70371778,2.34893 11.04128218,5.5214 16.76659318,7.80996 -2.922902,0.78905 -6.7656542,0.30454 -10.0277554,0.27635 l -0.4408597,-0.0638 -0.5085078,-0.17713 z m -3.9351296,-4.68849 c -3.5975571,-1.11749 0.3981821,0.87177 0.9486897,0.35603 l -0.3834154,-0.16015 z m -2.3392317,-0.68305 c -2.1349636,-0.18813 -0.2674602,0.40283 0,0 z m -1.7859376,-0.34678 c -2.0646076,-0.94931 0.8158004,0.88638 0,0 z"
         id="path912"
         inkscape:connector-curvature="0" />
      <path
         style="fill:#cecece;stroke-width:0.26458335"
         d="m -85.590398,321.61937 c 0.60058,-3.26169 6.617806,-1.57246 9.368982,-2.93493 9.93646,-2.23262 18.46375,-8.03087 27.311716,-12.75845 3.44978,-1.73941 7.700867,-3.34034 11.475462,-1.80451 4.039635,2.3439 -6.063252,5.83096 -0.783605,7.55375 4.941323,1.54113 10.272952,0.90407 15.221066,2.34299 2.169529,3.21688 -4.622196,4.33634 -6.286699,6.53978 -1.033811,0.6656 -1.895424,1.85434 -3.268584,1.489 -17.148091,-0.0541 -34.299515,0.13815 -51.444882,-0.15646 -0.525086,-0.0752 -1.120181,0.0227 -1.593456,-0.27117 z m 84.81107119,-2.10993 c -4.14093049,-1.59311 -8.51706789,-2.54657 -12.53799719,-4.43705 1.107515,-2.70159 6.7324643,-4.59226 9.5896034,-2.838 0.4499484,1.44467 -1.380842,3.34301 1.4134664,3.60786 3.03261246,-0.47546 7.7739906,3.23606 2.59593902,3.9448 l -0.49084733,-0.1264 z"
         id="path910"
         inkscape:connector-curvature="0" />
      <path
         style="fill:#b0b0b0;stroke-width:0.26458335"
         d="m -85.641928,321.36502 c 1.909043,-2.73175 7.330072,-1.11461 10.407119,-2.72934 9.766994,-2.45149 18.134963,-8.27519 26.942733,-12.87226 3.14795,-1.59926 6.874536,-2.5211 10.351805,-1.65533 4.491922,2.12652 -5.54197,5.44677 -0.638367,7.65205 5.023925,1.91012 10.756709,0.66789 15.693396,2.68423 1.797891,1.59294 -2.729976,3.0006 -3.754042,4.02393 -1.700924,0.92816 -3.144643,2.46295 -4.827495,3.31411 -17.569807,-0.0535 -35.142804,0.13613 -52.709999,-0.1538 -0.470293,-0.0996 -1.061471,0.0695 -1.46515,-0.26359 z m 84.1819896,-2.37485 c -3.9233815,-1.49257 -8.1827247,-2.20686 -11.8381766,-4.33091 2.145459,-2.21734 6.503799,-3.77442 9.5235638,-2.29341 0.9068037,0.93754 -2.1967897,3.1075 0.9264527,3.5093 2.29648968,0.0553 8.1994084,2.2049 3.33853273,3.72878 -0.6609641,-0.16809 -1.30739702,-0.38789 -1.95037263,-0.61376 z"
         id="path908"
         inkscape:connector-curvature="0" />
      <path
         style="fill:#939393;stroke-width:0.26458335"
         d="m -85.200568,321.52131 c 0.74492,-2.59326 5.860795,-1.32768 8.36801,-2.41581 9.250588,-1.87907 17.407026,-6.79469 25.441863,-11.50549 4.015484,-2.04759 8.541846,-4.74404 13.203469,-3.48014 4.194104,2.17705 -4.120053,4.65052 -1.413307,7.34974 4.925768,2.29996 10.678405,1.20202 15.81065,2.7207 3.268806,2.02901 -3.633647,3.77378 -4.943845,5.48933 -2.69006,3.07996 -7.02815,1.60165 -10.610961,2.01825 -15.282758,0.063 -30.58123,0.29452 -45.855879,-0.17658 z m 83.7406296,-2.68074 c -3.8428571,-1.46184 -7.9487651,-2.28651 -11.6085016,-4.19852 2.360962,-1.71864 6.1044946,-3.89124 9.0293055,-2.2762 0.9304791,0.92801 -2.1997967,3.03515 0.8273276,3.5561 1.9080332,0.10434 8.436201,2.15995 3.69392817,3.44079 -0.67580693,-0.0357 -1.31921438,-0.2768 -1.94205967,-0.52217 z"
         id="path906"
         inkscape:connector-curvature="0" />
      <path
         style="fill:#767676;stroke-width:0.26458335"
         d="m -85.151014,321.05481 c 3.825031,-1.73878 8.719055,-1.09631 12.744662,-2.90297 8.615813,-2.72107 16.169417,-7.79476 24.075519,-12.00799 3.29212,-1.40108 7.667589,-3.31669 10.9552,-1.1932 1.533073,0.79405 -0.75332,1.74797 -1.209749,2.6253 -4.17766,2.73838 0.363401,5.68274 3.628287,5.40381 3.871569,0.72525 8.009987,0.26762 11.71934,1.65251 0.152986,2.73667 -5.571719,3.88912 -7.358864,6.26567 -1.059212,1.19304 -2.858231,0.38409 -4.271176,0.61989 -16.409965,-0.0585 -32.824265,0.14917 -49.230739,-0.16132 -0.276594,-0.1423 -0.934048,0.12495 -1.05248,-0.3017 z m 83.4264923,-2.47882 c -3.6657025,-1.34719 -7.5895631,-2.29613 -11.0800853,-3.88672 2.14381,-1.82467 6.2781512,-3.74181 8.8172587,-1.88961 -3.2870274,4.14819 4.93570649,3.31287 6.1816755,5.34763 -0.7936436,1.48495 -2.70434364,0.92083 -3.9188489,0.4287 z"
         id="path904"
         inkscape:connector-curvature="0" />
      <path
         style="fill:#686868;stroke-width:0.26458335"
         d="m -85.007329,320.95417 c 4.131274,-0.91163 8.475584,-1.02337 12.503868,-2.50067 8.824213,-2.70516 16.45868,-8.0317 24.576632,-12.23335 3.172201,-1.301 7.334936,-3.04237 10.506797,-1.03211 0.706687,1.23321 -2.702983,2.49847 -2.963203,4.03991 -1.076693,4.16561 5.121549,3.75905 7.867842,4.30872 3.081487,0.60864 6.909984,-0.0942 9.491912,1.65211 -3.167627,1.97014 -6.103759,5.14983 -9.723749,5.93342 -16.733771,0.22148 -33.474817,0.17778 -50.209421,-1.2e-4 -0.674767,-0.0738 -1.394658,0.0409 -2.050678,-0.16791 z M -1.195355,318.461 c -3.7363419,-1.425 -7.7577527,-2.12831 -11.292137,-4.05401 2.426096,-1.22278 5.1937832,-2.62937 7.9497772,-1.91226 -2.3052612,3.25606 2.5243919,4.51371 5.15806945,4.88294 3.30830555,0.34967 -0.39014626,2.63372 -1.81570965,1.08333 z"
         id="path902"
         inkscape:connector-curvature="0" />
    </g>
  </g>
  <g
     inkscape:label="Ebene 1"
     inkscape:groupmode="layer"
     id="layer1"
     transform="translate(-3.9597809,-115.42034)"
     style="opacity:1">
    <path
       id="path13592"
       transform="matrix(0.26458333,0,0,0.26458333,3.9597809,115.42034)"
       style="fill:#000000;stroke-width:1.33333337"
       d="m 685.83203,0 -2.54687,4.1777344 c -1.40152,2.2984093 -4.78569,5.8854636 -7.51954,7.9707036 -4.69826,3.583553 -5.92865,3.837821 -22.44726,4.640624 -26.11926,1.26939 -36.58309,5.052041 -50.38086,18.212891 -9.60563,9.16218 -15.02665,17.512696 -19.46094,29.978516 -2.9088,8.17735 -3.44531,11.968012 -3.44531,24.351562 0,12.383539 0.53651,16.174209 3.44531,24.351559 4.43429,12.46583 9.85531,20.81829 19.46094,29.98047 8.75293,8.3489 18.14226,13.56434 29.26953,16.26172 17.44577,4.22899 34.99426,1.63689 42.69531,-6.30859 6.05598,-6.24816 6.94141,-10.69578 6.94141,-34.85547 0,-18.52973 -0.34108,-21.95916 -2.66602,-26.76172 -3.88199,-8.01918 -10.49304,-11.333984 -22.60937,-11.333984 h -9.58008 l 4.70899,4.441406 c 2.58985,2.44252 5.33138,6.080747 6.09375,8.085937 0.76237,2.00523 1.38671,12.978401 1.38671,24.384761 v 20.74024 l -12.33398,-0.58008 c -14.04155,-0.65908 -19.77594,-2.95382 -28.18164,-11.27539 -2.85037,-2.82188 -7.05104,-9.0302 -9.33399,-13.79687 -3.83176,-8.00043 -4.15039,-9.74231 -4.15039,-22.66602 0,-12.63553 0.37623,-14.817253 3.86719,-22.376953 5.11404,-11.07451 16.74035,-22.044193 26.4043,-24.914063 3.9157,-1.16285 11.96223,-2.042968 18.67969,-2.042968 23.2749,0 31.63138,-7.912337 31.68164,-30 z m -160.65625,16.675781 -6.66601,0.02734 C 504.96591,16.757649 496.60284,20.93121 491.86328,30 c -0.95811,1.83329 -11.44521,29.98607 -23.30273,62.5625 -14.50545,39.85114 -21.30547,60.23534 -20.78711,62.30078 0.42377,1.68839 2.41257,3.95965 4.41992,5.04883 2.1753,1.18031 7.32324,2.00296 12.74414,2.0332 8.26839,0.0485 8.90477,-0.1382 7,-2.04297 -3.04834,-3.04834 -2.71029,-5.08896 3.74609,-22.66796 l 5.83985,-15.90235 18.00195,-0.37109 18,-0.36914 5.69531,15.52929 c 8.27089,22.54923 12.28133,25.88438 31.1211,25.87305 l 8.16797,-0.004 -4.26954,-2.60351 c -2.34773,-1.43149 -5.19341,-4.39137 -6.32421,-6.57813 -1.13083,-2.18676 -10.76036,-27.97814 -21.39844,-57.314449 -21.04672,-58.03979 -22.17719,-62.86136 -16.45899,-70.13086 1.58495,-2.01495 4.73497,-4.794601 7,-6.175781 z m -317.27539,0.150391 c -0.43197,-0.006 -0.93902,-0.0041 -1.52734,0.0059 -1.56883,0.0257 -3.71258,0.102961 -6.53125,0.212891 -13.60649,0.53064 -18.78094,2.566428 -23.56055,9.267578 l -3.10547,4.353516 -0.37109,62.621093 c -0.37176,62.598811 -0.37364,62.624751 -3.33399,65.839841 l -2.96093,3.21485 6.66601,-0.61328 c 8.37145,-0.77038 15.7966,-4.24051 18.92188,-8.84375 2.21059,-3.25602 2.46697,-8.50293 3.07812,-62.992192 l 0.66602,-59.439453 3.83984,-5.029297 c 2.11136,-2.76684 5.71136,-5.890253 8,-6.939453 2.56571,-1.17622 3.24252,-1.617703 0.21875,-1.658203 z m -175.189452,0.02344 c -1.422187,-0.014 -2.866246,0.0303 -4.326172,0.134766 -9.921106,0.70983 -15.979992,3.515543 -20.4023441,9.445313 -2.738017,3.671313 -2.8221503,5.312484 -3.4726563,67.773437 -0.611841,58.748825 -0.8580324,64.152245 -2.9804687,65.703125 -1.27193607,0.92947 -1.87062821,2.13794 -1.33203128,2.68555 1.49380598,1.51884 11.18580138,0.0729 16.36523438,-2.44141 2.537209,-1.23168 5.812627,-3.86892 7.279297,-5.86133 2.54719,-3.46027 2.697187,-6.28385 3.333984,-63.017576 0.619257,-55.170963 0.845023,-59.665438 3.166016,-63.205078 3.146645,-4.79879 1.367153,-7.98084 21.597656,38.59961 10.96783,25.253243 17.522617,38.680084 20.259766,41.496094 5.030059,5.17505 14.494024,8.50391 24.177734,8.50391 7.096997,0 7.272777,-0.0826 4.404297,-2.0918 -1.64336,-1.15105 -4.498633,-5.07569 -6.345703,-8.7207 L 91.076172,99.226562 101.92188,74.279297 c 12.626,-29.04215 15.88102,-35.146536 22.36328,-41.947266 4.55886,-4.78284 8.23624,-6.835471 5.96875,-3.332031 -0.59328,0.91664 -1.37749,28.474088 -1.74414,61.238281 -0.64704,57.817699 -0.74988,59.680739 -3.45704,63.332029 -1.53409,2.0691 -4.77291,5.11169 -7.19726,6.76172 l -4.40625,3 h 5.46484 c 9.01279,0 18.74858,-2.68643 23.14844,-6.38867 7.77869,-6.54534 7.7793,-6.55538 7.7793,-72.720704 0,-57.193243 0.13877,-60.706357 2.5039,-63.710937 l 2.50391,-3.179688 -20.16992,0.378907 C 102.8881,18.305301 100.81147,19.674866 87.871094,48.603516 83.206281,59.031869 79.122406,67.83088 78.796875,68.15625 78.471344,68.48179 74.408777,59.880129 69.767578,49.041016 63.843701,35.206356 59.989669,28.045912 56.837891,25.013672 51.521388,19.898862 42.66624,16.947559 32.710938,16.849609 Z m 224.464842,0.482422 c -29.66077,0 -32.25882,0.610779 -38.22851,8.980469 l -3.10547,4.353516 -0.66602,63.77539 c -0.64603,61.800304 -0.7499,63.837894 -3.33398,65.810544 -2.47982,1.89305 -2.19956,1.99464 4,1.44922 8.21974,-0.72314 15.15266,-3.97065 18.66797,-8.74609 2.39479,-3.25323 2.70862,-6.10265 3.08203,-27.95508 l 0.41601,-24.33398 h 13.77149 13.77343 l 5.68946,13 c 12.0426,27.51753 17.0425,37.35192 20.7539,40.81445 4.67048,4.35727 14.64506,7.51953 23.71875,7.51953 6.48719,-1e-5 6.61625,-0.0738 3.73243,-2.09375 -1.64335,-1.15097 -4.40613,-4.89972 -6.14063,-8.33203 -2.88191,-5.70281 -19.5023,-43.50198 -22.23437,-50.56641 -1.00881,-2.608499 -0.48274,-3.335049 4.10546,-5.675779 15.55212,-7.9341 24.32234,-26.21003 21.11524,-44 -1.64951,-9.14986 -5.89359,-16.584946 -13.43359,-23.535156 -10.12345,-9.33146 -15.07006,-10.464844 -45.6836,-10.464844 z m 494.53711,0 c -35.96893,0 -37.83881,0.12527 -41.35547,2.75 -2.02575,1.512 -4.91964,4.405448 -6.43164,6.429688 -2.65765,3.55809 -2.76221,5.52693 -3.14648,59.25 -0.21864,30.563801 -0.0464,57.503511 0.38476,59.865231 0.97474,5.33956 6.5711,12.14662 11.94532,14.5293 3.15331,1.39809 12.20079,1.73288 40.30468,1.49023 34.25843,-0.29571 36.43986,-0.46366 39.91797,-3.0625 6.131,-4.58117 8.52717,-8.89837 9.21485,-16.60351 0.35876,-4.02293 0.29288,-6.55124 -0.14649,-5.61914 C 800.103,141.23526 794.68818,142 762.47266,142 H 730.9707 l -3.89648,-3.89844 c -3.85399,-3.85414 -3.89844,-4.06698 -3.89844,-19.17383 v -15.27539 l 21.04688,-0.53711 c 17.90132,-0.45558 21.71599,-0.92658 25.52734,-3.158199 8.09771,-4.74138 10.04682,-8.782813 10.47852,-21.720703 l 0.38671,-11.570312 -2.24023,4.375 c -1.2319,2.40665 -4.10631,5.707304 -6.38672,7.333984 -3.8171,2.72273 -5.91822,2.991206 -26.47851,3.378906 l -22.33399,0.421875 V 63.318359 44.460938 l 3.89844,-3.896485 3.89648,-3.898437 h 31.50196 c 32.21552,0 37.63034,0.764712 39.92773,5.638672 0.43956,0.932103 0.5235,-1.438569 0.1875,-5.267579 -0.75629,-8.6163 -2.13188,-11.260385 -8.32422,-15.984375 l -4.8789,-3.720703 z M 260.57422,34 c 14.25557,0 20.64428,1.70993 26.37695,7.0625 11.35412,10.60127 9.5643,29.58226 -3.67187,38.9375 -5.58801,3.94956 -5.91047,4.005301 -25.64063,4.457031 l -19.98242,0.457031 0.42578,-21.570312 0.42774,-21.570312 4.35351,-3.886719 C 247.05898,34.141019 247.70568,34 260.57422,34 Z m 239.07226,35.826172 c 0.0458,-0.0194 0.0823,-0.0113 0.10743,0.0293 0.8374,1.35489 11.42187,32.011661 11.42187,33.082031 0,0.21773 -5.4,0.39453 -12,0.39453 -6.6,0 -12,-0.46926 -12,-1.04492 0,-3.264737 11.04993,-31.858418 12.4707,-32.460938 z m -167.1582,83.310548 c 0.007,0.001 0.013,0.003 0.0195,0.004 l 0.004,-0.004 c -0.01,-1e-5 -0.0138,2e-5 -0.0234,0 z m 2.7832,7.80469 c 0.0172,0.009 0.0336,0.0187 0.0508,0.0273 0.048,0.024 0.1017,0.0154 0.15625,-0.002 -0.0767,-0.01 -0.12513,-0.0139 -0.20704,-0.0254 z" />
    <path
       id="path13592-3"
       transform="matrix(0.26458333,0,0,0.26458333,3.9597809,115.42034)"
       style="opacity:0.28200001;fill:url(#linearGradient14480);fill-opacity:1;stroke-width:0.8884604"
       d="m 113.44922,162.26367 4.40625,1.33203 c 2.42434,0.73262 5.66317,2.08327 7.19726,3.00196 2.70716,1.62127 2.81,2.44912 3.45704,28.12109 0.36665,14.54782 1.15086,26.78439 1.74414,27.19141 2.26749,1.55558 -1.40988,0.64321 -5.96875,-1.48047 -6.48226,-3.01961 -9.7373,-5.72982 -22.36328,-18.625 l -10.845708,-11.07617 3.359375,-2.94336 c 1.84707,-1.61847 4.702343,-3.36003 6.345703,-3.8711 2.86848,-0.89208 2.6927,-0.92969 -4.404297,-0.92968 -9.68371,0 -19.147675,1.47759 -24.177734,3.77539 -2.737149,1.25034 -9.291936,7.21291 -20.259766,18.42578 -20.230503,20.68245 -18.451011,19.26942 -21.597656,17.13867 -2.320993,-1.57164 -2.546759,-3.56767 -3.166016,-28.06445 -0.636797,-25.1907 -0.786794,-26.44409 -3.333984,-27.98047 -1.46667,-0.88467 -4.742089,-2.05663 -7.279297,-2.60352 -5.179434,-1.1164 -14.8714244,-1.75836 -16.36523438,-1.08398 -0.53859991,0.2434 0.0600793,0.78067 1.33203128,1.19336 2.1224381,0.68863 2.3686247,3.08644 2.9804687,29.17187 0.650506,27.73364 0.7346373,28.46364 3.4726563,30.09375 4.4223531,2.63293 10.4812311,3.87818 20.4023441,4.19336 11.679397,0.37115 22.377122,-0.96893 28.453125,-3.56445 3.151781,-1.34634 7.00581,-4.52518 12.929687,-10.66797 4.641199,-4.81273 8.703766,-8.63284 9.029297,-8.48828 0.325531,0.14476 4.409403,4.05127 9.074219,8.68164 12.940376,12.84477 15.017006,13.45288 46.808596,13.7168 l 20.16992,0.16796 -2.50391,-1.41211 c -2.36514,-1.33406 -2.5039,-2.89239 -2.5039,-28.28711 0,-29.37837 -5.3e-4,-29.38283 -7.7793,-32.28906 -4.39986,-1.64387 -14.13565,-2.83789 -23.14844,-2.83789 z m 53.06055,0.43945 2.96093,1.42774 c 2.96034,1.42757 2.96223,1.43946 3.33399,29.23437 l 0.37109,27.80469 3.10547,1.93164 c 4.77961,2.97539 9.95406,3.87966 23.56055,4.11524 11.27467,0.19503 11.74949,0.15702 7.83984,-0.63868 -2.28862,-0.46577 -5.88865,-1.85157 -8,-3.08007 l -3.83984,-2.23438 -0.66602,-26.39258 c -0.61115,-24.19408 -0.86755,-26.52301 -3.07812,-27.96875 -3.12527,-2.04389 -10.55043,-3.58374 -18.92188,-3.92578 z m 149.20507,0.15235 c -9.0737,0 -19.04827,1.40319 -23.71875,3.33789 -3.71142,1.53744 -8.71126,5.90482 -20.7539,18.12305 l -5.68946,5.77148 H 251.7793 238.00781 L 237.5918,179.2832 c -0.37341,-9.70284 -0.68724,-10.96761 -3.08203,-12.41211 -3.5153,-2.12035 -10.44825,-3.56174 -18.66797,-3.88281 -6.19956,-0.24227 -6.47982,-0.19813 -4,0.64258 2.58407,0.87591 2.68794,1.78038 3.33398,29.2207 l 0.66602,28.31836 3.10547,1.93164 c 5.96969,3.71626 8.56776,3.98828 38.22851,3.98828 30.61357,0 35.56018,-0.50317 45.6836,-4.64648 7.53999,-3.08602 11.78409,-6.38848 13.43359,-10.45117 3.20711,-7.89902 -5.56309,-16.0123 -21.11524,-19.53516 -4.58819,-1.03934 -5.11425,-1.36131 -4.10546,-2.51953 2.73207,-3.13671 19.35244,-19.92104 22.23437,-22.45312 1.7345,-1.52398 4.49729,-3.18815 6.14063,-3.69922 2.88382,-0.89688 2.75475,-0.92969 -3.73243,-0.92969 z m 238.62891,0.002 c -18.83978,-0.004 -22.85216,1.47608 -31.12305,11.48828 l -5.69531,6.89453 -18,-0.16406 -18.00195,-0.16406 -5.83985,-7.06055 c -6.45638,-7.80541 -6.79443,-8.71096 -3.74609,-10.06445 1.90477,-0.84574 1.26839,-0.92974 -7,-0.9082 -5.4209,0.0113 -10.56884,0.38022 -12.74414,0.90429 v -0.002 c -2.00735,0.4836 -3.99615,1.49252 -4.41992,2.24219 -0.51836,0.91707 6.28166,9.96754 20.78711,27.66211 11.85752,14.46448 22.34462,26.96525 23.30273,27.77929 4.73956,4.02667 13.10263,5.88007 26.64649,5.9043 l 6.66601,0.0117 -4.11719,-1.11524 c -2.26503,-0.61321 -5.41505,-1.84753 -7,-2.74218 -5.7182,-3.22779 -4.58773,-5.36807 16.45899,-31.13867 10.63811,-13.0258 20.26761,-24.4783 21.39844,-25.44922 1.1308,-0.97096 3.97648,-2.28433 6.32421,-2.91993 l 4.26954,-1.15624 z m 93.94531,0.0254 c -5.16818,0.0151 -10.63023,0.30579 -16.08203,0.89258 -11.12727,1.19769 -20.5166,3.51366 -29.26953,7.2207 -9.60563,4.06817 -15.02665,7.77746 -19.46094,13.3125 -2.9088,3.63088 -3.44531,5.314 -3.44531,10.8125 0,5.49849 0.53651,7.18166 3.44531,10.8125 4.43429,5.53504 9.85531,9.24238 19.46094,13.31055 13.79777,5.8436 24.2616,7.5223 50.38086,8.08594 16.51861,0.35641 17.74902,0.46945 22.44726,2.06054 2.73385,0.92587 6.11802,2.51852 7.51954,3.53907 l 2.54687,1.85547 -0.0215,-4.73633 c -0.0503,-9.80727 -8.40674,-13.32031 -31.68164,-13.32031 -6.71746,0 -14.76399,-0.38993 -18.67969,-0.90625 -9.66395,-1.27423 -21.29026,-6.14526 -26.4043,-11.0625 -3.49096,-3.35664 -3.86719,-4.32518 -3.86719,-9.93555 0,-5.73834 0.31865,-6.51215 4.15039,-10.06445 2.28295,-2.1165 6.48362,-4.87205 9.33399,-6.125 8.4057,-3.6949 14.14009,-4.71517 28.18164,-5.00782 l 12.33398,-0.25586 v 9.20703 c 0,5.06464 -0.62434,9.9378 -1.38671,10.82813 -0.76237,0.89035 -3.5039,2.50534 -6.09375,3.58984 l -4.70899,1.97266 h 9.58008 c 12.11633,0 18.72738,-1.47061 22.60937,-5.03125 2.32494,-2.13241 2.66602,-3.65727 2.66602,-11.88477 0,-10.72728 -0.88543,-12.70029 -6.94141,-15.47461 -5.29447,-2.42533 -15.24328,-3.72844 -26.61328,-3.69531 z m 87.41602,0.10157 c -14.54872,0.0254 -20.23076,0.22392 -22.5957,0.68945 -5.37422,1.05797 -10.97058,4.08034 -11.94532,6.45117 -0.43117,1.04865 -0.6034,13.01122 -0.38476,26.58203 0.38427,23.85392 0.48883,24.72679 3.14648,26.30664 1.512,0.89877 4.40589,2.18411 6.43164,2.85547 3.51666,1.16541 5.38654,1.2207 41.35547,1.2207 h 37.67188 l 4.8789,-1.65234 c 6.19234,-2.09753 7.56793,-3.27191 8.32422,-7.09766 0.336,-1.70015 0.25206,-2.75175 -0.1875,-2.33789 -2.29739,2.16412 -7.71221,2.50391 -39.92773,2.50391 H 730.9707 l -3.89648,-1.73047 -3.89844,-1.73047 v -8.37304 -8.37305 l 22.33399,0.1875 c 20.56029,0.17197 22.66141,0.29086 26.47851,1.5 2.28041,0.72227 5.15482,2.18724 6.38672,3.25586 l 2.24023,1.94336 -0.38671,-5.13672 c -0.4317,-5.74465 -2.38081,-7.53929 -10.47852,-9.64453 -3.81135,-0.99088 -7.62602,-1.20203 -25.52734,-1.4043 l -21.04688,-0.23633 v -6.7832 c 0,-6.70767 0.0445,-6.80237 3.89844,-8.51367 l 3.89648,-1.73047 h 31.50196 c 32.21552,0 37.63034,0.33967 39.92773,2.5039 0.43937,0.41386 0.50523,-0.70985 0.14649,-2.49609 -0.68768,-3.42119 -3.08385,-5.33698 -9.21485,-7.37109 -3.47811,-1.15393 -5.65954,-1.22808 -39.91797,-1.35938 -7.02597,-0.0269 -12.85942,-0.0378 -17.70898,-0.0293 z m -371.10938,8.1914 c -0.002,0.007 -0.004,0.0144 -0.006,0.0215 0.008,-0.006 0.0155,-0.0132 0.0234,-0.0195 -0.004,-4.8e-4 -0.0133,-6e-4 -0.0176,-0.002 z m 134.58008,17.72852 c 6.6,0 12,0.079 12,0.17578 0,0.47524 -10.58447,14.08592 -11.42187,14.6875 -0.80307,0.57699 -12.57813,-12.90209 -12.57813,-14.39844 0,-0.2555 5.4,-0.46484 12,-0.46484 z m -261.51953,8.17773 19.98242,0.20313 c 19.73015,0.20069 20.0526,0.227 25.64063,1.98046 13.23617,4.15385 15.02599,12.57993 3.67187,17.28711 -5.73264,2.3766 -12.12137,3.13672 -26.37695,3.13672 -12.8685,0 -13.51525,-0.0632 -17.71094,-1.72656 l -4.35351,-1.72656 -0.42774,-9.57617 z" />
    <path
       id="path15066"
       transform="matrix(0.26458333,0,0,0.26458333,3.9597809,115.42034)"
       style="fill:url(#linearGradient15098);fill-opacity:1;stroke-width:1.25748825;filter:url(#filter15134)"
       d="m 414.13477,32.695312 c -3.84334,0.01836 -8.78544,0.09461 -15.21875,0.207032 l -27.42188,0.478515 -16.95508,4.97461 c -16.7757,4.920227 -24.66406,8.954812 -24.66406,12.613281 0,1.037934 1.94279,3.398094 4.31641,5.246094 2.37369,1.848227 5.24735,4.624569 6.38476,6.167968 1.88213,2.553865 1.86304,3.025575 -0.19922,5.265626 -1.24652,1.353894 -5.12072,4.4834 -8.60937,6.953124 -10.35954,7.333267 -8.92034,9.386966 13.27539,18.957032 12.61236,5.438097 20.72082,10.441696 18.98828,11.716796 -0.29707,0.22186 -3.55227,1.84358 -7.22461,3.60352 -14.15127,6.78281 -15.49105,9.87478 -7.2168,16.66406 5.6925,4.66976 6.68555,8.63465 2.87696,11.48437 -1.28531,0.96178 -5.80891,3.30946 -10.05078,5.2168 -4.24181,1.90711 -9.21301,4.53344 -11.04688,5.83594 -3.51696,2.498 -5.30737,7.17401 -3.19141,8.33398 0.68931,0.37758 1.25391,1.72016 1.25391,2.98438 0,1.22502 0.38066,1.80394 2.24609,2.07422 0.51333,-0.29563 1.22808,-0.35095 2.52344,-0.35157 0.35602,10e-4 0.74898,-0.0179 1.11328,0.01 0.0958,-0.0122 0.19297,-0.0194 0.28907,-0.0293 0.0719,-0.0451 0.143,-0.0811 0.21289,-0.0918 0.0961,-0.0148 0.19965,0.0156 0.30859,0.0723 0.14028,2e-4 0.27629,-0.005 0.42578,0.008 0.74695,0.0605 2.36933,0.32682 3.05664,0.52735 0.198,-0.006 0.39246,0.0152 0.58789,0.0293 7.8828,-0.2486 10.3591,-1.74534 11.33399,-6.35351 0.91237,-4.31278 6.18772,-8.27321 18.36523,-13.78516 12.27916,-5.55798 13.84245,-9.57548 6.17383,-15.86719 -8.19281,-6.72203 -7.15352,-10.02921 4.95703,-15.78906 4.62406,-2.19912 7.64433,-2.625 18.56055,-2.625 H 412.625 l -5.54297,3.5586 c -8.57408,5.50752 -7.91652,7.21604 6.4707,16.82031 7.77257,5.18812 8.11406,7.27536 1.95899,11.96484 -2.72413,2.07511 -6.75944,5.1357 -8.9668,6.80274 l -4.01367,3.03125 3.17773,3.00781 c 4.13923,3.91945 17.98107,8.08493 29.0879,8.75391 0.58311,0.0354 0.94591,0.0432 1.44921,0.0684 0.21951,-0.15602 0.38385,-0.23184 0.62891,-0.23243 0.31264,-7.5e-4 0.77903,0.12039 1.66406,0.33594 2.77452,0.0643 3.36252,-0.15085 1.71875,-0.64453 h -0.002 c -10.1859,-3.05794 -15.9773,-7.8383 -13.73438,-11.33398 0.58198,-0.9066 4.81414,-4.09505 9.4043,-7.08594 11.2772,-7.34805 11.08929,-9.78502 -1.3164,-17.16602 -10.99064,-6.5393 -11.21547,-9.71267 -1.09571,-15.4707 13.22895,-7.52833 13.81994,-11.502525 2.65235,-17.857423 -7.61783,-4.334702 -11.04926,-8.165068 -9.83399,-10.974609 0.44912,-1.037859 3.68074,-3.517728 7.18164,-5.509766 13.40436,-7.627616 13.82096,-11.325995 2.05469,-18.253906 -10.27767,-6.0511 -11.46842,-8.783306 -6.56641,-15.056641 l 3.82813,-4.898437 -3.2461,-2.332032 C 427.29872,33.1131 425.66476,32.64025 414.13477,32.695312 Z m -23.34961,14.982422 10.13672,4.609375 c 13.20524,6.007333 19.57942,10.654517 19.05078,13.884766 -0.23925,1.460523 -3.67921,4.51334 -8.36328,7.421875 -4.3767,2.718161 -8.56278,6.145263 -9.30274,7.615234 -1.16791,2.321462 -0.64946,3.208583 3.95117,6.75 l 5.29688,4.076172 -20.69727,-0.451172 c -17.11445,-0.373417 -22.06108,-0.899281 -28.56836,-3.033203 -14.69374,-4.818784 -15.49777,-7.962417 -4.00586,-15.65625 8.35207,-5.592302 9.17427,-8.74311 3.88672,-14.890625 -3.1971,-3.716976 -3.23088,-3.946033 -0.9668,-6.425781 2.04355,-2.238274 4.11176,-2.656889 15.96485,-3.236328 z M 335.11328,161.13672 c -0.06,0.001 -0.11949,0.0212 -0.17773,0.0488 0.10538,-0.0171 0.22357,-0.0349 0.32812,-0.0488 -0.0784,-0.001 -0.10011,-0.001 -0.15039,0 z" />
  </g>
</svg>
